<?xml version="1.0" encoding="UTF-8" standalone="no"?>
<!-- Created with Inkscape (http://www.inkscape.org/) -->

<svg
   version="1.1"
   id="svg1"
   width="188.976"
   height="113.38587"
   viewBox="0 0 188.976 113.38587"
   sodipodi:docname="CMMJ_CMYK.pdf"
   xmlns:inkscape="http://www.inkscape.org/namespaces/inkscape"
   xmlns:sodipodi="http://sodipodi.sourceforge.net/DTD/sodipodi-0.dtd"
   xmlns="http://www.w3.org/2000/svg"
   xmlns:svg="http://www.w3.org/2000/svg">
  <defs
     id="defs1">
    <clipPath
       clipPathUnits="userSpaceOnUse"
       id="clipPath2">
      <path
         d="M 0,85.039 H 141.732 V 0 H 0 Z"
         transform="translate(-56.701501,-65.736802)"
         id="path2" />
    </clipPath>
    <clipPath
       clipPathUnits="userSpaceOnUse"
       id="clipPath4">
      <path
         d="M 0,85.039 H 141.732 V 0 H 0 Z"
         transform="translate(-61.840901,-67.857802)"
         id="path4" />
    </clipPath>
    <clipPath
       clipPathUnits="userSpaceOnUse"
       id="clipPath6">
      <path
         d="M 0,85.039 H 141.732 V 0 H 0 Z"
         transform="translate(-65.702602,-57.374202)"
         id="path6" />
    </clipPath>
    <clipPath
       clipPathUnits="userSpaceOnUse"
       id="clipPath8">
      <path
         d="M 0,85.039 H 141.732 V 0 H 0 Z"
         transform="translate(-68.845901,-64.887402)"
         id="path8" />
    </clipPath>
    <clipPath
       clipPathUnits="userSpaceOnUse"
       id="clipPath10">
      <path
         d="M 0,85.039 H 141.732 V 0 H 0 Z"
         transform="translate(-77.424002,-57.473202)"
         id="path10" />
    </clipPath>
    <clipPath
       clipPathUnits="userSpaceOnUse"
       id="clipPath12">
      <path
         d="M 0,85.039 H 141.732 V 0 H 0 Z"
         transform="translate(-80.6908,-64.850002)"
         id="path12" />
    </clipPath>
    <clipPath
       clipPathUnits="userSpaceOnUse"
       id="clipPath14">
      <path
         d="M 0,85.039 H 141.732 V 0 H 0 Z"
         transform="translate(-87.114002,-61.730902)"
         id="path14" />
    </clipPath>
    <clipPath
       clipPathUnits="userSpaceOnUse"
       id="clipPath16">
      <path
         d="M 0,85.039 H 141.732 V 0 H 0 Z"
         transform="translate(-91.904305,-64.850002)"
         id="path16" />
    </clipPath>
    <clipPath
       clipPathUnits="userSpaceOnUse"
       id="clipPath18">
      <path
         d="M 0,85.039 H 141.732 V 0 H 0 Z"
         transform="translate(-95.704202,-64.788301)"
         id="path18" />
    </clipPath>
    <clipPath
       clipPathUnits="userSpaceOnUse"
       id="clipPath20">
      <path
         d="M 0,85.039 H 141.732 V 0 H 0 Z"
         transform="translate(-100.27101,-60.778002)"
         id="path20" />
    </clipPath>
    <clipPath
       clipPathUnits="userSpaceOnUse"
       id="clipPath22">
      <path
         d="M 0,85.039 H 141.732 V 0 H 0 Z"
         transform="translate(-104.17011,-57.374202)"
         id="path22" />
    </clipPath>
    <clipPath
       clipPathUnits="userSpaceOnUse"
       id="clipPath24">
      <path
         d="M 0,85.039 H 141.732 V 0 H 0 Z"
         transform="translate(-107.47431,-64.887402)"
         id="path24" />
    </clipPath>
    <clipPath
       clipPathUnits="userSpaceOnUse"
       id="clipPath26">
      <path
         d="M 0,85.039 H 141.732 V 0 H 0 Z"
         transform="translate(-116.0523,-57.473202)"
         id="path26" />
    </clipPath>
    <clipPath
       clipPathUnits="userSpaceOnUse"
       id="clipPath28">
      <path
         d="M 0,85.039 H 141.732 V 0 H 0 Z"
         transform="translate(-118.4157,-60.778002)"
         id="path28" />
    </clipPath>
    <clipPath
       clipPathUnits="userSpaceOnUse"
       id="clipPath30">
      <path
         d="M 0,85.039 H 141.732 V 0 H 0 Z"
         transform="translate(-64.910402,-49.096801)"
         id="path30" />
    </clipPath>
    <clipPath
       clipPathUnits="userSpaceOnUse"
       id="clipPath32">
      <path
         d="M 0,85.039 H 141.732 V 0 H 0 Z"
         transform="translate(-68.091202,-44.739901)"
         id="path32" />
    </clipPath>
    <clipPath
       clipPathUnits="userSpaceOnUse"
       id="clipPath34">
      <path
         d="M 0,85.039 H 141.732 V 0 H 0 Z"
         transform="translate(-70.900702,-52.253301)"
         id="path34" />
    </clipPath>
    <clipPath
       clipPathUnits="userSpaceOnUse"
       id="clipPath36">
      <path
         d="M 0,85.039 H 141.732 V 0 H 0 Z"
         transform="translate(-75.814404,-44.739901)"
         id="path36" />
    </clipPath>
    <clipPath
       clipPathUnits="userSpaceOnUse"
       id="clipPath38">
      <path
         d="M 0,85.039 H 141.732 V 0 H 0 Z"
         transform="translate(-79.094304,-44.739901)"
         id="path38" />
    </clipPath>
    <clipPath
       clipPathUnits="userSpaceOnUse"
       id="clipPath40">
      <path
         d="M 0,85.039 H 141.732 V 0 H 0 Z"
         transform="translate(-82.522,-44.739901)"
         id="path40" />
    </clipPath>
    <clipPath
       clipPathUnits="userSpaceOnUse"
       id="clipPath42">
      <path
         d="M 0,85.039 H 141.732 V 0 H 0 Z"
         transform="translate(-86.111402,-44.739901)"
         id="path42" />
    </clipPath>
    <clipPath
       clipPathUnits="userSpaceOnUse"
       id="clipPath44">
      <path
         d="M 0,85.039 H 141.732 V 0 H 0 Z"
         transform="translate(-91.706102,-52.215801)"
         id="path44" />
    </clipPath>
    <clipPath
       clipPathUnits="userSpaceOnUse"
       id="clipPath46">
      <path
         d="M 0,85.039 H 141.732 V 0 H 0 Z"
         transform="translate(-97.8328,-44.839201)"
         id="path46" />
    </clipPath>
    <clipPath
       clipPathUnits="userSpaceOnUse"
       id="clipPath48">
      <path
         d="M 0,85.039 H 141.732 V 0 H 0 Z"
         transform="translate(-100.1962,-48.143701)"
         id="path48" />
    </clipPath>
    <clipPath
       clipPathUnits="userSpaceOnUse"
       id="clipPath50">
      <path
         d="M 0,85.039 H 141.732 V 0 H 0 Z"
         transform="translate(-61.642702,-32.105801)"
         id="path50" />
    </clipPath>
    <clipPath
       clipPathUnits="userSpaceOnUse"
       id="clipPath52">
      <path
         d="M 0,85.039 H 141.732 V 0 H 0 Z"
         transform="translate(-64.093102,-32.105801)"
         id="path52" />
    </clipPath>
    <clipPath
       clipPathUnits="userSpaceOnUse"
       id="clipPath54">
      <path
         d="M 0,85.039 H 141.732 V 0 H 0 Z"
         transform="translate(-68.796401,-39.519501)"
         id="path54" />
    </clipPath>
    <clipPath
       clipPathUnits="userSpaceOnUse"
       id="clipPath56">
      <path
         d="M 0,85.039 H 141.732 V 0 H 0 Z"
         transform="translate(-74.911002,-32.105801)"
         id="path56" />
    </clipPath>
    <clipPath
       clipPathUnits="userSpaceOnUse"
       id="clipPath58">
      <path
         d="M 0,85.039 H 141.732 V 0 H 0 Z"
         transform="translate(-79.626504,-39.581101)"
         id="path58" />
    </clipPath>
    <clipPath
       clipPathUnits="userSpaceOnUse"
       id="clipPath60">
      <path
         d="M 0,85.039 H 141.732 V 0 H 0 Z"
         transform="translate(-83.784602,-39.531601)"
         id="path60" />
    </clipPath>
    <clipPath
       clipPathUnits="userSpaceOnUse"
       id="clipPath62">
      <path
         d="M 0,85.039 H 141.732 V 0 H 0 Z"
         transform="translate(-86.445302,-35.509201)"
         id="path62" />
    </clipPath>
    <clipPath
       clipPathUnits="userSpaceOnUse"
       id="clipPath64">
      <path
         d="M 0,85.039 H 141.732 V 0 H 0 Z"
         transform="translate(-56.775601,-65.575002)"
         id="path64" />
    </clipPath>
    <clipPath
       clipPathUnits="userSpaceOnUse"
       id="clipPath66">
      <path
         d="M 0,85.039 H 141.732 V 0 H 0 Z"
         transform="translate(-51.549502,-49.490601)"
         id="path66" />
    </clipPath>
  </defs>
  <sodipodi:namedview
     id="namedview1"
     pagecolor="#ffffff"
     bordercolor="#000000"
     borderopacity="0.25"
     inkscape:showpageshadow="2"
     inkscape:pageopacity="0.0"
     inkscape:pagecheckerboard="0"
     inkscape:deskcolor="#d1d1d1">
    <inkscape:page
       x="0"
       y="0"
       inkscape:label="1"
       id="page1"
       width="188.976"
       height="113.38587"
       margin="22.6772 27.770666 22.6772 20.356533"
       bleed="0" />
  </sodipodi:namedview>
  <g
     id="layer-MC0"
     inkscape:groupmode="layer"
     inkscape:label="Vrstva 1">
    <path
       id="path1"
       d="m 0,0 c 0,0.185 -0.151,0.336 -0.336,0.336 h -40.762 c -0.185,0 -0.336,-0.151 -0.336,-0.336 v -29.108 c 0,-10.711 9.284,-19.603 20.737,-19.603 11.452,0 20.737,8.892 20.737,19.603 z"
       style="fill:#ffffff;fill-opacity:1;fill-rule:nonzero;stroke:none"
       transform="matrix(1.3333333,0,0,-1.3333333,75.602,25.7368)"
       clip-path="url(#clipPath2)" />
    <path
       id="path3"
       d="M 0,0 C -0.025,0.075 0,0.1 0.061,0.1 H 1.733 C 1.807,0.1 1.807,0.075 1.77,0 L 0.928,-1.51 c -0.025,-0.049 -0.074,-0.049 -0.1,0 z M 1.398,-3.008 H 0.383 c -0.049,0 -0.061,-0.012 -0.061,-0.061 v -6.165 c 0,-0.049 0.012,-0.061 0.061,-0.061 h 1.015 c 0.05,0 0.062,0.012 0.062,0.061 v 1.152 c 0,0.061 0.049,0.086 0.099,0.086 h 1.114 c 0.061,0 0.1,-0.025 0.1,-0.086 v -1.251 c 0,-0.767 -0.273,-1.212 -1.238,-1.212 H 0.284 c -0.99,0 -1.274,0.445 -1.274,1.187 v 6.387 c 0,0.768 0.333,1.214 1.25,1.214 h 1.263 c 0.915,0 1.25,-0.446 1.25,-1.201 v -1.151 c 0,-0.062 -0.039,-0.087 -0.1,-0.087 H 1.559 c -0.05,0 -0.099,0.025 -0.099,0.087 v 1.04 c 0,0.049 -0.012,0.061 -0.062,0.061"
       style="fill:#1c5027;fill-opacity:1;fill-rule:nonzero;stroke:none"
       transform="matrix(1.3333333,0,0,-1.3333333,82.454533,22.9088)"
       clip-path="url(#clipPath4)" />
    <path
       id="path5"
       d="m 0,0 c -0.075,0 -0.1,0.061 -0.1,0.1 v 8.465 c 0,0.062 0.038,0.099 0.1,0.099 h 2.301 c 0.05,0 0.1,-0.037 0.1,-0.099 V 7.513 c 0,-0.062 -0.05,-0.087 -0.1,-0.087 H 1.213 V 5.025 h 1.088 c 0.05,0 0.1,-0.037 0.1,-0.099 V 3.874 C 2.401,3.8 2.351,3.775 2.301,3.775 H 1.213 V 1.25 h 1.088 c 0.05,0 0.1,-0.037 0.1,-0.086 V 0.1 C 2.401,0.025 2.351,0 2.301,0 Z"
       style="fill:#1c5027;fill-opacity:1;fill-rule:nonzero;stroke:none"
       transform="matrix(1.3333333,0,0,-1.3333333,87.603467,36.886933)"
       clip-path="url(#clipPath6)" />
    <path
       id="path7"
       d="m 0,0 c 0,0.767 0.335,1.212 1.251,1.212 h 1.262 c 0.916,0 1.251,-0.445 1.251,-1.2 v -1.151 c 0,-0.062 -0.038,-0.087 -0.1,-0.087 H 2.55 c -0.049,0 -0.098,0.025 -0.098,0.087 V -0.1 c 0,0.05 -0.014,0.063 -0.063,0.063 H 1.374 c -0.05,0 -0.062,-0.013 -0.062,-0.063 v -2.388 c 0,-0.05 0.012,-0.062 0.062,-0.062 h 1.139 c 0.978,0 1.251,-0.446 1.251,-1.188 v -2.624 c 0,-0.767 -0.273,-1.213 -1.239,-1.213 H 1.275 C 0.285,-7.575 0,-7.129 0,-6.387 v 1.275 c 0,0.062 0.037,0.086 0.1,0.086 h 1.113 c 0.049,0 0.099,-0.024 0.099,-0.086 v -1.151 c 0,-0.05 0.012,-0.062 0.062,-0.062 h 1.015 c 0.049,0 0.063,0.012 0.063,0.062 v 2.401 c 0,0.049 -0.014,0.062 -0.063,0.062 H 1.251 C 0.359,-3.8 0,-3.627 0,-2.612 Z"
       style="fill:#1c5027;fill-opacity:1;fill-rule:nonzero;stroke:none"
       transform="matrix(1.3333333,0,0,-1.3333333,91.794533,26.869333)"
       clip-path="url(#clipPath8)" />
    <path
       id="path9"
       d="m 0,0 c 0,-0.062 -0.037,-0.1 -0.087,-0.1 h -1.126 c -0.049,0 -0.099,0.038 -0.099,0.1 v 3.552 c 0,0.05 -0.013,0.062 -0.062,0.062 H -2.452 V 0 c 0,-0.075 -0.037,-0.1 -0.098,-0.1 h -1.114 c -0.074,0 -0.1,0.063 -0.1,0.1 v 8.466 c 0,0.062 0.038,0.099 0.1,0.099 h 1.114 c 0.061,0 0.098,-0.037 0.098,-0.099 V 4.803 l 1.226,3.663 c 0.025,0.037 0.049,0.099 0.125,0.099 h 1.212 c 0.062,0 0.086,-0.062 0.062,-0.124 L -1.053,4.828 C -0.198,4.716 0,4.258 0,3.404 Z"
       style="fill:#1c5027;fill-opacity:1;fill-rule:nonzero;stroke:none"
       transform="matrix(1.3333333,0,0,-1.3333333,103.232,36.754933)"
       clip-path="url(#clipPath10)" />
    <path
       id="path11"
       d="m 0,0 h -1.015 c -0.049,0 -0.061,-0.012 -0.061,-0.061 v -6.165 c 0,-0.05 0.012,-0.061 0.061,-0.061 H 0 c 0.05,0 0.061,0.011 0.061,0.061 v 6.165 C 0.061,-0.012 0.05,0 0,0 m -2.388,-6.349 v 6.386 c 0,0.767 0.333,1.213 1.25,1.213 h 1.262 c 0.916,0 1.25,-0.446 1.25,-1.2 v -6.375 c 0,-0.767 -0.273,-1.213 -1.237,-1.213 h -1.251 c -0.99,0 -1.274,0.446 -1.274,1.189"
       style="fill:#1c5027;fill-opacity:1;fill-rule:nonzero;stroke:none"
       transform="matrix(1.3333333,0,0,-1.3333333,107.58773,26.9192)"
       clip-path="url(#clipPath12)" />
    <path
       id="path13"
       d="m 0,0 -0.705,-2.401 c -0.026,-0.087 -0.062,-0.186 -0.161,-0.198 h -0.915 c -0.1,0.012 -0.125,0.111 -0.161,0.198 l -0.707,2.364 v -4.221 c 0,-0.074 -0.037,-0.099 -0.099,-0.099 h -1.089 c -0.074,0 -0.098,0.062 -0.098,0.099 v 8.466 c 0,0.062 0.036,0.1 0.098,0.1 h 1.053 c 0.135,0 0.147,-0.1 0.172,-0.174 l 1.287,-4.406 1.289,4.406 C -0.012,4.208 0,4.308 0.148,4.308 h 1.04 c 0.063,0 0.1,-0.038 0.1,-0.1 v -8.466 c 0,-0.037 -0.026,-0.099 -0.1,-0.099 H 0.1 c -0.05,0 -0.1,0.025 -0.1,0.099 z"
       style="fill:#1c5027;fill-opacity:1;fill-rule:nonzero;stroke:none"
       transform="matrix(1.3333333,0,0,-1.3333333,116.152,31.078)"
       clip-path="url(#clipPath14)" />
    <path
       id="path15"
       d="m 0,0 h -1.015 c -0.049,0 -0.061,-0.012 -0.061,-0.061 v -6.165 c 0,-0.05 0.012,-0.061 0.061,-0.061 H 0 c 0.05,0 0.061,0.011 0.061,0.061 v 6.165 C 0.061,-0.012 0.05,0 0,0 m -2.389,-6.349 v 6.386 c 0,0.767 0.334,1.213 1.251,1.213 h 1.262 c 0.916,0 1.25,-0.446 1.25,-1.2 v -6.375 c 0,-0.767 -0.273,-1.213 -1.237,-1.213 h -1.251 c -0.99,0 -1.275,0.446 -1.275,1.189"
       style="fill:#1c5027;fill-opacity:1;fill-rule:nonzero;stroke:none"
       transform="matrix(1.3333333,0,0,-1.3333333,122.53907,26.9192)"
       clip-path="url(#clipPath16)" />
    <path
       id="path17"
       d="m 0,0 v -2.451 h 0.892 c 0.047,0 0.061,0.013 0.061,0.062 v 2.327 C 0.953,-0.012 0.939,0 0.892,0 Z m 1.052,-7.414 c -0.074,0 -0.099,0.062 -0.099,0.099 L 0,-3.899 V -7.315 C 0,-7.39 -0.037,-7.414 -0.1,-7.414 h -1.113 c -0.075,0 -0.099,0.062 -0.099,0.099 v 8.466 c 0,0.062 0.036,0.099 0.099,0.099 h 2.228 c 0.916,0 1.25,-0.446 1.25,-1.2 v -2.538 c 0,-0.693 -0.223,-1.126 -0.966,-1.201 L 2.388,-7.315 C 2.401,-7.39 2.351,-7.414 2.29,-7.414 Z"
       style="fill:#1c5027;fill-opacity:1;fill-rule:nonzero;stroke:none"
       transform="matrix(1.3333333,0,0,-1.3333333,127.6056,27.001467)"
       clip-path="url(#clipPath18)" />
    <path
       id="path19"
       d="M 0,0 H 0.681 L 0.359,2.388 Z m 0.99,5.261 c 0.074,0 0.1,-0.063 0.1,-0.1 l 1.398,-8.466 c 0,-0.062 -0.037,-0.099 -0.1,-0.099 H 1.225 c -0.049,0 -0.099,0.037 -0.099,0.099 l -0.284,2.068 h -1.028 l -0.309,-2.068 c 0,-0.062 -0.038,-0.099 -0.099,-0.099 h -1.163 c -0.063,0 -0.099,0.037 -0.099,0.099 l 1.473,8.466 c 0,0.037 0.024,0.1 0.099,0.1 z"
       style="fill:#1c5027;fill-opacity:1;fill-rule:nonzero;stroke:none"
       transform="matrix(1.3333333,0,0,-1.3333333,133.69467,32.348533)"
       clip-path="url(#clipPath20)" />
    <path
       id="path21"
       d="m 0,0 c -0.075,0 -0.1,0.061 -0.1,0.1 l -1.435,8.465 c 0,0.062 0.037,0.099 0.099,0.099 h 1.164 c 0.05,0 0.099,-0.037 0.099,-0.099 l 0.804,-5.31 0.817,5.31 c 0,0.062 0.037,0.099 0.099,0.099 H 2.71 c 0.062,0 0.1,-0.037 0.1,-0.099 L 1.374,0.1 C 1.374,0.061 1.348,0 1.275,0 Z"
       style="fill:#1c5027;fill-opacity:1;fill-rule:nonzero;stroke:none"
       transform="matrix(1.3333333,0,0,-1.3333333,138.89347,36.886933)"
       clip-path="url(#clipPath22)" />
    <path
       id="path23"
       d="m 0,0 c 0,0.767 0.335,1.212 1.251,1.212 h 1.262 c 0.915,0 1.251,-0.445 1.251,-1.2 v -1.151 c 0,-0.062 -0.038,-0.087 -0.1,-0.087 H 2.55 c -0.05,0 -0.098,0.025 -0.098,0.087 V -0.1 c 0,0.05 -0.014,0.063 -0.063,0.063 H 1.374 c -0.05,0 -0.062,-0.013 -0.062,-0.063 v -2.388 c 0,-0.05 0.012,-0.062 0.062,-0.062 h 1.139 c 0.978,0 1.251,-0.446 1.251,-1.188 v -2.624 c 0,-0.767 -0.273,-1.213 -1.239,-1.213 H 1.275 C 0.285,-7.575 0,-7.129 0,-6.387 v 1.275 c 0,0.062 0.037,0.086 0.1,0.086 h 1.113 c 0.049,0 0.099,-0.024 0.099,-0.086 v -1.151 c 0,-0.05 0.012,-0.062 0.062,-0.062 h 1.015 c 0.049,0 0.063,0.012 0.063,0.062 v 2.401 c 0,0.049 -0.014,0.062 -0.063,0.062 H 1.251 C 0.359,-3.8 0,-3.627 0,-2.612 Z"
       style="fill:#1c5027;fill-opacity:1;fill-rule:nonzero;stroke:none"
       transform="matrix(1.3333333,0,0,-1.3333333,143.29907,26.869333)"
       clip-path="url(#clipPath24)" />
    <path
       id="path25"
       d="m 0,0 c 0,-0.062 -0.037,-0.1 -0.087,-0.1 h -1.126 c -0.049,0 -0.099,0.038 -0.099,0.1 v 3.552 c 0,0.05 -0.013,0.062 -0.062,0.062 H -2.452 V 0 c 0,-0.075 -0.037,-0.1 -0.098,-0.1 h -1.114 c -0.074,0 -0.1,0.063 -0.1,0.1 v 8.466 c 0,0.062 0.038,0.099 0.1,0.099 h 1.114 c 0.061,0 0.098,-0.037 0.098,-0.099 V 4.803 l 1.226,3.663 c 0.025,0.037 0.049,0.099 0.125,0.099 h 1.212 c 0.062,0 0.086,-0.062 0.062,-0.124 L -1.053,4.828 C -0.198,4.716 0,4.258 0,3.404 Z"
       style="fill:#1c5027;fill-opacity:1;fill-rule:nonzero;stroke:none"
       transform="matrix(1.3333333,0,0,-1.3333333,154.7364,36.754933)"
       clip-path="url(#clipPath26)" />
    <path
       id="path27"
       d="M 0,0 H 0.681 L 0.359,2.388 Z M 1.053,5.706 C 1.015,5.606 0.965,5.57 0.866,5.57 h -1.014 c -0.088,0 -0.112,0.05 -0.088,0.111 l 0.545,1.473 c 0.037,0.087 0.086,0.1 0.15,0.1 h 1.026 c 0.099,0 0.111,-0.05 0.099,-0.1 z M 0.99,5.261 c 0.074,0 0.1,-0.063 0.1,-0.1 l 1.398,-8.466 c 0,-0.062 -0.037,-0.099 -0.1,-0.099 H 1.225 c -0.049,0 -0.099,0.037 -0.099,0.099 l -0.284,2.068 h -1.028 l -0.309,-2.068 c 0,-0.062 -0.038,-0.099 -0.099,-0.099 h -1.163 c -0.063,0 -0.099,0.037 -0.099,0.099 l 1.473,8.466 c 0,0.037 0.024,0.1 0.099,0.1 z"
       style="fill:#1c5027;fill-opacity:1;fill-rule:nonzero;stroke:none"
       transform="matrix(1.3333333,0,0,-1.3333333,157.8876,32.348533)"
       clip-path="url(#clipPath28)" />
    <path
       id="path29"
       d="m 0,0 -0.706,-2.401 c -0.025,-0.087 -0.062,-0.186 -0.161,-0.198 h -0.915 c -0.1,0.012 -0.124,0.111 -0.161,0.198 l -0.706,2.364 v -4.221 c 0,-0.074 -0.037,-0.099 -0.099,-0.099 h -1.089 c -0.074,0 -0.099,0.062 -0.099,0.099 v 8.466 c 0,0.062 0.037,0.1 0.099,0.1 h 1.052 c 0.136,0 0.148,-0.1 0.172,-0.174 l 1.288,-4.406 1.288,4.406 C -0.012,4.208 0,4.308 0.148,4.308 h 1.04 c 0.062,0 0.099,-0.038 0.099,-0.1 v -8.466 c 0,-0.037 -0.025,-0.099 -0.099,-0.099 H 0.1 c -0.05,0 -0.1,0.025 -0.1,0.099 z"
       style="fill:#1c5027;fill-opacity:1;fill-rule:nonzero;stroke:none"
       transform="matrix(1.3333333,0,0,-1.3333333,86.5472,47.923467)"
       clip-path="url(#clipPath30)" />
    <path
       id="path31"
       d="m 0,0 c -0.075,0 -0.1,0.061 -0.1,0.1 v 2.858 l -1.225,5.607 c -0.012,0.062 0.05,0.099 0.1,0.099 h 1.114 c 0.061,0 0.086,-0.037 0.098,-0.099 L 0.556,5.582 1.114,8.565 c 0.012,0.062 0.05,0.099 0.099,0.099 h 1.126 c 0.049,0 0.112,-0.037 0.087,-0.099 L 1.213,2.958 V 0.1 C 1.213,0.025 1.164,0 1.114,0 Z"
       style="fill:#1c5027;fill-opacity:1;fill-rule:nonzero;stroke:none"
       transform="matrix(1.3333333,0,0,-1.3333333,90.788267,53.732667)"
       clip-path="url(#clipPath32)" />
    <path
       id="path33"
       d="m 0,0 c 0,0.767 0.334,1.212 1.25,1.212 h 1.262 c 0.917,0 1.251,-0.445 1.251,-1.2 v -1.151 c 0,-0.062 -0.038,-0.087 -0.1,-0.087 H 2.549 c -0.049,0 -0.098,0.025 -0.098,0.087 V -0.1 c 0,0.05 -0.013,0.063 -0.063,0.063 H 1.374 c -0.05,0 -0.062,-0.013 -0.062,-0.063 v -2.388 c 0,-0.05 0.012,-0.062 0.062,-0.062 h 1.138 c 0.979,0 1.251,-0.446 1.251,-1.188 v -2.624 c 0,-0.767 -0.272,-1.213 -1.238,-1.213 H 1.275 C 0.284,-7.575 0,-7.129 0,-6.387 v 1.275 c 0,0.062 0.036,0.086 0.1,0.086 h 1.113 c 0.049,0 0.099,-0.024 0.099,-0.086 v -1.151 c 0,-0.05 0.012,-0.062 0.062,-0.062 h 1.014 c 0.05,0 0.063,0.012 0.063,0.062 v 2.401 c 0,0.049 -0.013,0.062 -0.063,0.062 H 1.25 C 0.359,-3.8 0,-3.627 0,-2.612 Z"
       style="fill:#1c5027;fill-opacity:1;fill-rule:nonzero;stroke:none"
       transform="matrix(1.3333333,0,0,-1.3333333,94.534267,43.7148)"
       clip-path="url(#clipPath34)" />
    <path
       id="path35"
       d="m 0,0 c -0.075,0 -0.1,0.061 -0.1,0.1 v 8.465 c 0,0.062 0.038,0.099 0.1,0.099 h 1.114 c 0.062,0 0.099,-0.037 0.099,-0.099 V 1.25 H 2.401 C 2.462,1.25 2.5,1.2 2.5,1.151 V 0.1 C 2.5,0.025 2.462,0 2.401,0 Z"
       style="fill:#1c5027;fill-opacity:1;fill-rule:nonzero;stroke:none"
       transform="matrix(1.3333333,0,0,-1.3333333,101.08587,53.732667)"
       clip-path="url(#clipPath36)" />
    <path
       id="path37"
       d="m 0,0 c -0.075,0 -0.1,0.061 -0.1,0.1 v 8.465 c 0,0.062 0.038,0.099 0.1,0.099 h 1.114 c 0.062,0 0.099,-0.037 0.099,-0.099 V 0.1 C 1.213,0.025 1.176,0 1.114,0 Z"
       style="fill:#1c5027;fill-opacity:1;fill-rule:nonzero;stroke:none"
       transform="matrix(1.3333333,0,0,-1.3333333,105.45907,53.732667)"
       clip-path="url(#clipPath38)" />
    <path
       id="path39"
       d="m 0,0 c -0.074,0 -0.1,0.061 -0.1,0.1 l -1.435,8.465 c 0,0.062 0.038,0.099 0.099,0.099 h 1.164 c 0.05,0 0.099,-0.037 0.099,-0.099 l 0.804,-5.31 0.818,5.31 c 0,0.062 0.036,0.099 0.099,0.099 h 1.163 c 0.062,0 0.1,-0.037 0.1,-0.099 L 1.374,0.1 C 1.374,0.061 1.349,0 1.275,0 Z"
       style="fill:#1c5027;fill-opacity:1;fill-rule:nonzero;stroke:none"
       transform="matrix(1.3333333,0,0,-1.3333333,110.02933,53.732667)"
       clip-path="url(#clipPath40)" />
    <path
       id="path41"
       d="m 0,0 c -0.074,0 -0.1,0.061 -0.1,0.1 v 8.465 c 0,0.062 0.039,0.099 0.1,0.099 h 2.302 c 0.05,0 0.1,-0.037 0.1,-0.099 V 7.513 c 0,-0.062 -0.05,-0.087 -0.1,-0.087 H 1.213 V 5.025 h 1.089 c 0.05,0 0.1,-0.037 0.1,-0.099 V 3.874 C 2.402,3.8 2.352,3.775 2.302,3.775 H 1.213 V 1.25 h 1.089 c 0.05,0 0.1,-0.037 0.1,-0.086 V 0.1 C 2.402,0.025 2.352,0 2.302,0 Z"
       style="fill:#1c5027;fill-opacity:1;fill-rule:nonzero;stroke:none"
       transform="matrix(1.3333333,0,0,-1.3333333,114.8152,53.732667)"
       clip-path="url(#clipPath42)" />
    <path
       id="path43"
       d="m 0,0 h -1.015 c -0.049,0 -0.061,-0.012 -0.061,-0.061 v -6.165 c 0,-0.05 0.012,-0.061 0.061,-0.061 H 0 c 0.05,0 0.061,0.011 0.061,0.061 v 1.151 c 0,0.062 0.05,0.087 0.1,0.087 h 1.114 c 0.062,0 0.099,-0.025 0.099,-0.087 v -1.25 c 0,-0.767 -0.273,-1.213 -1.237,-1.213 h -1.251 c -0.99,0 -1.274,0.446 -1.274,1.189 v 6.386 c 0,0.767 0.333,1.213 1.25,1.213 h 1.262 c 0.916,0 1.25,-0.446 1.25,-1.2 v -1.151 c 0,-0.063 -0.037,-0.088 -0.099,-0.088 H 0.161 c -0.05,0 -0.1,0.025 -0.1,0.088 v 1.04 C 0.061,-0.012 0.05,0 0,0"
       style="fill:#1c5027;fill-opacity:1;fill-rule:nonzero;stroke:none"
       transform="matrix(1.3333333,0,0,-1.3333333,122.2748,43.7648)"
       clip-path="url(#clipPath44)" />
    <path
       id="path45"
       d="m 0,0 c 0,-0.062 -0.037,-0.1 -0.087,-0.1 h -1.126 c -0.049,0 -0.099,0.038 -0.099,0.1 v 3.552 c 0,0.05 -0.013,0.062 -0.062,0.062 H -2.451 V 0 c 0,-0.075 -0.037,-0.1 -0.098,-0.1 h -1.114 c -0.075,0 -0.1,0.063 -0.1,0.1 v 8.466 c 0,0.062 0.037,0.099 0.1,0.099 h 1.114 c 0.061,0 0.098,-0.037 0.098,-0.099 V 4.803 l 1.226,3.663 c 0.024,0.037 0.049,0.099 0.124,0.099 h 1.212 c 0.062,0 0.087,-0.062 0.062,-0.124 L -1.053,4.828 C -0.198,4.716 0,4.258 0,3.404 Z"
       style="fill:#1c5027;fill-opacity:1;fill-rule:nonzero;stroke:none"
       transform="matrix(1.3333333,0,0,-1.3333333,130.44373,53.600267)"
       clip-path="url(#clipPath46)" />
    <path
       id="path47"
       d="M 0,0 H 0.681 L 0.359,2.388 Z M 1.053,5.706 C 1.016,5.606 0.966,5.57 0.867,5.57 h -1.015 c -0.087,0 -0.112,0.05 -0.087,0.111 l 0.544,1.473 c 0.038,0.087 0.087,0.1 0.15,0.1 h 1.027 c 0.098,0 0.111,-0.05 0.098,-0.1 z M 0.99,5.261 c 0.075,0 0.1,-0.063 0.1,-0.1 l 1.399,-8.466 c 0,-0.062 -0.037,-0.099 -0.1,-0.099 H 1.226 c -0.049,0 -0.099,0.037 -0.099,0.099 l -0.285,2.068 h -1.027 l -0.31,-2.068 c 0,-0.062 -0.038,-0.099 -0.099,-0.099 h -1.163 c -0.062,0 -0.099,0.037 -0.099,0.099 l 1.473,8.466 c 0,0.037 0.025,0.1 0.099,0.1 z"
       style="fill:#1c5027;fill-opacity:1;fill-rule:nonzero;stroke:none"
       transform="matrix(1.3333333,0,0,-1.3333333,133.59493,49.194267)"
       clip-path="url(#clipPath48)" />
    <path
       id="path49"
       d="m 0,0 h -1.126 c -0.075,0 -0.099,0.061 -0.099,0.1 v 1.064 c 0,0.049 0.036,0.086 0.099,0.086 h 0.989 c 0.05,0 0.063,0.012 0.063,0.062 v 7.253 c 0,0.062 0.037,0.099 0.098,0.099 h 1.115 c 0.049,0 0.098,-0.037 0.098,-0.099 V 1.213 C 1.237,0.445 0.965,0 0,0"
       style="fill:#1c5027;fill-opacity:1;fill-rule:nonzero;stroke:none"
       transform="matrix(1.3333333,0,0,-1.3333333,82.190267,70.578133)"
       clip-path="url(#clipPath50)" />
    <path
       id="path51"
       d="m 0,0 c -0.074,0 -0.1,0.061 -0.1,0.1 v 8.465 c 0,0.062 0.039,0.099 0.1,0.099 h 2.302 c 0.05,0 0.1,-0.037 0.1,-0.099 V 7.513 c 0,-0.062 -0.05,-0.087 -0.1,-0.087 H 1.213 V 5.025 h 1.089 c 0.05,0 0.1,-0.037 0.1,-0.099 V 3.874 c 0,-0.074 -0.05,-0.1 -0.1,-0.1 H 1.213 V 1.25 h 1.089 c 0.05,0 0.1,-0.037 0.1,-0.086 V 0.1 C 2.402,0.024 2.352,0 2.302,0 Z"
       style="fill:#1c5027;fill-opacity:1;fill-rule:nonzero;stroke:none"
       transform="matrix(1.3333333,0,0,-1.3333333,85.457467,70.578133)"
       clip-path="url(#clipPath52)" />
    <path
       id="path53"
       d="m 0,0 v -6.165 h 1.077 c 0.049,0 0.062,0.014 0.062,0.064 v 6.04 C 1.139,-0.012 1.126,0 1.077,0 Z m -1.312,-7.315 v 8.466 c 0,0.062 0.037,0.1 0.099,0.1 h 2.414 c 0.915,0 1.251,-0.447 1.251,-1.201 v -6.251 c 0,-0.767 -0.274,-1.212 -1.239,-1.212 h -2.426 c -0.074,0 -0.099,0.061 -0.099,0.098"
       style="fill:#1c5027;fill-opacity:1;fill-rule:nonzero;stroke:none"
       transform="matrix(1.3333333,0,0,-1.3333333,91.728533,60.6932)"
       clip-path="url(#clipPath54)" />
    <path
       id="path55"
       d="M 0,0 C -0.075,0 -0.1,0.061 -0.1,0.1 L -1.262,4.221 V 0.1 C -1.262,0.024 -1.3,0 -1.362,0 h -1.09 C -2.525,0 -2.55,0.061 -2.55,0.1 v 8.465 c 0,0.062 0.037,0.099 0.098,0.099 h 1.115 c 0.061,0 0.099,-0.037 0.099,-0.099 l 1.163,-4.121 v 4.121 c 0,0.062 0.038,0.099 0.099,0.099 h 1.09 c 0.05,0 0.099,-0.037 0.099,-0.099 V 0.1 C 1.213,0.024 1.164,0 1.114,0 Z"
       style="fill:#1c5027;fill-opacity:1;fill-rule:nonzero;stroke:none"
       transform="matrix(1.3333333,0,0,-1.3333333,99.881333,70.578133)"
       clip-path="url(#clipPath56)" />
    <path
       id="path57"
       d="m 0,0 h -1.016 c -0.048,0 -0.061,-0.012 -0.061,-0.061 v -6.165 c 0,-0.05 0.013,-0.061 0.061,-0.061 H 0 c 0.05,0 0.061,0.011 0.061,0.061 v 6.165 C 0.061,-0.012 0.05,0 0,0 m -2.389,-6.349 v 6.386 c 0,0.768 0.334,1.214 1.25,1.214 h 1.263 c 0.915,0 1.25,-0.446 1.25,-1.201 v -6.375 c 0,-0.767 -0.273,-1.212 -1.238,-1.212 h -1.25 c -0.99,0 -1.275,0.445 -1.275,1.188"
       style="fill:#1c5027;fill-opacity:1;fill-rule:nonzero;stroke:none"
       transform="matrix(1.3333333,0,0,-1.3333333,106.16867,60.611067)"
       clip-path="url(#clipPath58)" />
    <path
       id="path59"
       d="m 0,0 v -7.326 c 0,-0.076 -0.036,-0.1 -0.086,-0.1 h -1.127 c -0.062,0 -0.099,0.062 -0.099,0.1 V 0 h -0.941 c -0.074,0 -0.098,0.05 -0.098,0.087 v 1.052 c 0,0.062 0.036,0.099 0.098,0.099 h 3.206 c 0.05,0 0.099,-0.037 0.099,-0.099 V 0.087 C 1.052,0.025 1.003,0 0.953,0 Z"
       style="fill:#1c5027;fill-opacity:1;fill-rule:nonzero;stroke:none"
       transform="matrix(1.3333333,0,0,-1.3333333,111.7128,60.677067)"
       clip-path="url(#clipPath60)" />
    <path
       id="path61"
       d="M 0,0 H 0.681 L 0.359,2.388 Z m 0.99,5.261 c 0.075,0 0.1,-0.062 0.1,-0.099 l 1.399,-8.466 c 0,-0.063 -0.037,-0.1 -0.1,-0.1 H 1.226 c -0.049,0 -0.099,0.037 -0.099,0.1 l -0.285,2.067 h -1.027 l -0.31,-2.067 c 0,-0.063 -0.038,-0.1 -0.099,-0.1 h -1.163 c -0.062,0 -0.099,0.037 -0.099,0.1 l 1.473,8.466 c 0,0.037 0.025,0.099 0.098,0.099 z"
       style="fill:#1c5027;fill-opacity:1;fill-rule:nonzero;stroke:none"
       transform="matrix(1.3333333,0,0,-1.3333333,115.2604,66.040267)"
       clip-path="url(#clipPath62)" />
    <path
       id="path63"
       d="m 0,0 c 0,0.265 -0.317,0.587 -0.689,0.587 h -40.142 c -0.26,0 -0.677,-0.206 -0.677,-0.718 v -28.79 c 0,-10.735 9.301,-19.646 20.774,-19.646 11.473,0 20.774,8.911 20.774,19.646 z"
       style="fill:#ffffff;fill-opacity:1;fill-rule:nonzero;stroke:none"
       transform="matrix(1.3333333,0,0,-1.3333333,75.7008,25.952533)"
       clip-path="url(#clipPath64)" />
    <path
       id="path65"
       d="m 0,0 c 0.029,0.098 -0.046,0.193 -0.148,0.193 h -3.4 c -2.064,0.107 -3.966,-0.952 -4.907,-2.775 -0.762,-1.475 -0.65,-2.975 -0.567,-3.597 0.007,-0.048 0.042,-0.083 0.09,-0.09 0.748,-0.107 3.173,-0.327 5.574,1.413 C -1.123,-3.237 -0.271,-0.905 0,0 m -6.057,9.036 7.782,7.636 h -8.783 c -0.58,-0.615 -1.507,-1.876 -1.431,-3.63 0.07,-1.644 0.999,-3.143 2.432,-4.006 m 3.216,-1.97 c -5.073,-2.4 -7.409,-6.619 -8.197,-8.29 l 0.004,-0.001 c -0.027,-0.053 -0.043,-0.11 -0.043,-0.173 0,-0.21 0.17,-0.38 0.379,-0.38 0.081,0 0.156,0.026 0.217,0.069 l 0.002,-0.002 4.725,3.717 c 1.23,0.868 2.694,1.389 4.25,1.492 H 3.937 C 4.31,3.479 4.577,3.143 4.501,2.782 3.891,0.736 2.348,-5.088 -1.983,-6.526 c -0.82,-0.272 -1.948,-0.628 -2.989,-0.952 -0.113,-0.037 -0.197,-0.139 -0.197,-0.263 0,-0.07 0.028,-0.132 0.071,-0.181 l 1.044,-1.08 H 5.267 L 5.243,8.668 C 3.307,8.756 0.334,8.568 -2.841,7.066 m 5.64,3.534 c 0.882,0.071 1.712,0.021 2.442,-0.089 L 5.233,16.004 C 5.228,16.191 5.147,16.359 5.021,16.48 5.02,16.48 5.02,16.479 5.02,16.479 L -1.423,9.82 c 0.856,0.207 2.44,0.638 4.222,0.78 m -16.227,-30.385 c -0.705,0.852 -1.555,1.397 -2.661,1.397 h -12.56 c -0.04,0 -0.083,0 -0.127,0 v 0.005 c -0.39,0.006 -0.724,0.226 -0.896,0.548 l -0.922,2.794 22.117,21.702 c -1.911,1.626 -2.869,4.073 -2.478,6.456 0.263,1.603 1.07,2.781 1.8,3.555 H -35.58 v -0.003 c -0.005,0 -0.008,0.001 -0.013,0.001 -0.377,0 -0.682,-0.303 -0.687,-0.679 h -10e-4 v -28.825 c 0,-10.735 9.302,-19.646 20.777,-19.646 8.307,0 15.473,4.673 18.798,11.325 h -13.81 c -1.126,0 -2.194,0.503 -2.912,1.37 m -6.446,11.98 c 0,-0.913 0.74,-1.653 1.653,-1.653 0.913,0 1.653,0.74 1.653,1.653 0,0.913 -0.74,1.652 -1.653,1.652 -0.913,0 -1.653,-0.739 -1.653,-1.652"
       style="fill:#1c5027;fill-opacity:1;fill-rule:nonzero;stroke:none"
       transform="matrix(1.3333333,0,0,-1.3333333,68.732667,47.3984)"
       clip-path="url(#clipPath66)" />
  </g>
</svg>
